REM DIRINDEX 1\6,1\2\7,1\2\8,1\2\9,1\3\10,1\3\11,1\4\12,1\4\13,1\4\14,1\5\15,1\5\16,1\5\17
REM DIRNAME folder01,folder02,folder03,folder04,folder05,folder06,folder07,folder08,folder09,folder10,folder11,folder12,folder13,folder14,folder15,folder16,folder17
TITLE ""
FILE "3Q_t_0440-0455.mp3" MP3
  TRACK 01 AUDIO
    TITLE "10:cjc041_2487"
    INDEX 01 00:00:00
  TRACK 02 AUDIO
    TITLE "0:"
    INDEX 01 00:01:09
  TRACK 03 AUDIO
    TITLE "11:cjc041_2488"
    INDEX 01 00:01:60
  TRACK 04 AUDIO
    TITLE "0:"
    INDEX 01 00:03:12
  TRACK 05 AUDIO
    TITLE "10:cjc041_2489"
    INDEX 01 00:03:64
  TRACK 06 AUDIO
    TITLE "0:"
    INDEX 01 00:04:72
  TRACK 07 AUDIO
    TITLE "11:cjc041_2490"
    INDEX 01 00:05:52
  TRACK 08 AUDIO
    TITLE "0:"
    INDEX 01 00:06:59
  TRACK 09 AUDIO
    TITLE "10:cjc041_2491"
    INDEX 01 00:07:37
  TRACK 10 AUDIO
    TITLE "0:"
    INDEX 01 00:08:56
  TRACK 11 AUDIO
    TITLE "11:cjc041_2492"
    INDEX 01 00:09:34
  TRACK 12 AUDIO
    TITLE "0:"
    INDEX 01 00:10:41
  TRACK 13 AUDIO
    TITLE "10:cjc041_2493"
    INDEX 01 00:11:23
  TRACK 14 AUDIO
    TITLE "0:"
    INDEX 01 00:12:48
  TRACK 15 AUDIO
    TITLE "11:cjc041_2494"
    INDEX 01 00:13:20
  TRACK 16 AUDIO
    TITLE "0:"
    INDEX 01 00:14:33
  TRACK 17 AUDIO
    TITLE "10:cjc041_2495"
    INDEX 01 00:15:13
  TRACK 18 AUDIO
    TITLE "0:"
    INDEX 01 00:16:30
  TRACK 19 AUDIO
    TITLE "11:cjc041_2496"
    INDEX 01 00:17:08
  TRACK 20 AUDIO
    TITLE "0:"
    INDEX 01 00:19:28
  TRACK 21 AUDIO
    TITLE "10:cjc041_2497"
    INDEX 01 00:20:10
  TRACK 22 AUDIO
    TITLE "0:"
    INDEX 01 00:21:41
  TRACK 23 AUDIO
    TITLE "11:cjc041_2498"
    INDEX 01 00:22:19
  TRACK 24 AUDIO
    TITLE "0:"
    INDEX 01 00:23:36
  TRACK 25 AUDIO
    TITLE "10:cjc041_2499"
    INDEX 01 00:24:20
  TRACK 26 AUDIO
    TITLE "0:"
    INDEX 01 00:25:45
  TRACK 27 AUDIO
    TITLE "11:cjc041_2500"
    INDEX 01 00:26:20
  TRACK 28 AUDIO
    TITLE "0:"
    INDEX 01 00:28:35
  TRACK 29 AUDIO
    TITLE "10:cjc041_2501"
    INDEX 01 00:29:11
  TRACK 30 AUDIO
    TITLE "0:"
    INDEX 01 00:30:26
  TRACK 31 AUDIO
    TITLE "11:cjc041_2502"
    INDEX 01 00:31:04
  TRACK 32 AUDIO
    TITLE "0:"
    INDEX 01 00:32:27
  TRACK 33 AUDIO
    TITLE "10:cjc041_2503"
    INDEX 01 00:33:03
  TRACK 34 AUDIO
    TITLE "0:"
    INDEX 01 00:34:12
  TRACK 35 AUDIO
    TITLE "11:cjc041_2504"
    INDEX 01 00:34:57
  TRACK 36 AUDIO
    TITLE "0:"
    INDEX 01 00:35:57
  TRACK 37 AUDIO
    TITLE "10:cjc041_2505"
    INDEX 01 00:36:35
  TRACK 38 AUDIO
    TITLE "0:"
    INDEX 01 00:37:54
  TRACK 39 AUDIO
    TITLE "11:cjc041_2506"
    INDEX 01 00:38:31
  TRACK 40 AUDIO
    TITLE "0:"
    INDEX 01 00:39:27
  TRACK 41 AUDIO
    TITLE "10:cjc041_2507"
    INDEX 01 00:40:05
  TRACK 42 AUDIO
    TITLE "0:"
    INDEX 01 00:41:12
  TRACK 43 AUDIO
    TITLE "11:cjc041_2508"
    INDEX 01 00:41:67
  TRACK 44 AUDIO
    TITLE "0:"
    INDEX 01 00:44:24
  TRACK 45 AUDIO
    TITLE "10:cjc041_2509"
    INDEX 01 00:45:04
  TRACK 46 AUDIO
    TITLE "0:"
    INDEX 01 00:46:17
  TRACK 47 AUDIO
    TITLE "11:cjc041_2510"
    INDEX 01 00:46:72
  TRACK 48 AUDIO
    TITLE "0:"
    INDEX 01 00:49:18
  TRACK 49 AUDIO
    TITLE "10:cjc041_2511"
    INDEX 01 00:49:70
  TRACK 50 AUDIO
    TITLE "0:"
    INDEX 01 00:51:16
  TRACK 51 AUDIO
    TITLE "11:cjc041_2512"
    INDEX 01 00:51:62
  TRACK 52 AUDIO
    TITLE "0:"
    INDEX 01 00:53:23
  TRACK 53 AUDIO
    TITLE "10:cjc041_2513"
    INDEX 01 00:54:07
  TRACK 54 AUDIO
    TITLE "0:"
    INDEX 01 00:55:24
  TRACK 55 AUDIO
    TITLE "11:cjc041_2514"
    INDEX 01 00:56:00
  TRACK 56 AUDIO
    TITLE "0:"
    INDEX 01 00:57:11
  TRACK 57 AUDIO
    TITLE "10:cjc041_2515"
    INDEX 01 00:57:64
  TRACK 58 AUDIO
    TITLE "0:"
    INDEX 01 00:59:00
  TRACK 59 AUDIO
    TITLE "11:cjc041_2516"
    INDEX 01 00:59:51
  TRACK 60 AUDIO
    TITLE "0:"
    INDEX 01 01:01:60
  TRACK 61 AUDIO
    TITLE "10:cjc041_2517"
    INDEX 01 01:02:32
  TRACK 62 AUDIO
    TITLE "0:"
    INDEX 01 01:03:37
  TRACK 63 AUDIO
    TITLE "11:cjc041_2518"
    INDEX 01 01:04:17
  TRACK 64 AUDIO
    TITLE "0:"
    INDEX 01 01:06:30
